# xmcd
#
# Track frame offsets: 
#        150
#        15551
#        49253
#        75137
#        100356
#
# Disc length: 1684 seconds
#
# Revision: 0
# Processed by: cddbd v1.5.2PL0 Copyright (c) Steve Scherf et al.
# Submitted via: ExactAudioCopyFreeDBPlugin 1.0
#
DISCID=2d069205
DTITLE=S-Sense feat. Jenny B. - Gonna Get Your Love (Remix)
DYEAR=2000
DGENRE=Euro-House
TTITLE0=Gonna Get Your Love (Extended Cut) 
TTITLE1=Gonna Get Your Love (Rhein-DPT Soulful Mix) 
TTITLE2=Gonna Get Your Love (Rhein-DPT Dub Mix) 
TTITLE3=Gonna Get Your Love (Hose Double´s Remix) 
TTITLE4=Gonna Get Your Love (Extended Mix) 
EXTD=
EXTT0=
EXTT1=
EXTT2=
EXTT3=
EXTT4=
PLAYORDER=
